Coordinates
version=1
nRows=7
nColumns=63
inDegrees=yes

Units are S.I. units (second, meters, Newtons, ...)
If the header above contains a line with 'inDegrees', this indicates whether rotational values are in degrees (yes) or radians (no).

endheader
time	pelvis_tilt	pelvis_list	pelvis_rotation	pelvis_tx	pelvis_ty	pelvis_tz	hip_flexion_r	hip_adduction_r	hip_rotation_r	knee_angle_r	knee_angle_r_beta	ankle_angle_r	subtalar_angle_r	mtp_angle_r	hip_flexion_l	hip_adduction_l	hip_rotation_l	knee_angle_l	knee_angle_l_beta	ankle_angle_l	subtalar_angle_l	mtp_angle_l	L5_S1_Flex_Ext	L5_S1_Lat_Bending	L5_S1_axial_rotation	L4_L5_Flex_Ext	L4_L5_Lat_Bending	L4_L5_axial_rotation	L3_L4_Flex_Ext	L3_L4_Lat_Bending	L3_L4_axial_rotation	L2_L3_Flex_Ext	L2_L3_Lat_Bending	L2_L3_axial_rotation	L1_L2_Flex_Ext	L1_L2_Lat_Bending	L1_L2_axial_rotation	L1_T12_Flex_Ext	L1_T12_Lat_Bending	L1_T12_axial_rotation	Abs_r3	Abs_r2	Abs_r1	Abs_t1	Abs_t2	neck_flexion	neck_bending	neck_rotation	arm_flex_r	arm_add_r	arm_rot_r	elbow_flex_r	pro_sup_r	wrist_flex_r	wrist_dev_r	arm_flex_l	arm_add_l	arm_rot_l	elbow_flex_l	pro_sup_l	wrist_flex_l	wrist_dev_l
      0.00000000	      0.53196234	     -4.46779176	     95.20577565	      0.23405003	      1.01591786	      0.06368637	     -7.99605398	      0.12647313	     -7.43713230	      6.14513661	      0.10725287	     22.69363767	      7.44413358	      0.00000000	     -6.48355674	      1.31680603	      8.21943092	      4.98351617	      0.08697877	     23.37497440	    -10.00445523	      0.00000000	      0.26670823	      0.09041669	     -0.29876700	      0.49530386	      0.12025420	     -0.31743993	      0.43817495	      0.21983914	     -0.31743993	      0.30482084	      0.21983914	     -0.26142112	      0.24766526	      0.18437771	     -0.24274818	      0.15239708	      0.14005545	     -0.22407525	      1.90507023	      1.02281166	     -1.66165240	      0.00000000	      0.00000000	     27.27306844	      2.95520944	     -0.64887939	     10.07618006	    -15.10273914	     70.43811574	     60.41243277	     12.09784039	     -1.70737865	      6.57173446	     17.26202195	    -13.77854359	     71.52491058	     61.47431588	     87.82773754	      7.92515938	      8.32372799
      0.01666667	      0.41787655	     -4.30465967	     94.00446447	      0.23512411	      1.01628649	      0.06301327	     -8.00815248	     -0.27243726	     -8.20511231	      6.52643364	      0.11390776	     22.66282214	      9.13174171	      0.00000000	     -6.72159515	      1.63643609	      7.46303762	      5.34141932	      0.09322535	     22.61811631	    -11.10965420	      0.00000000	      0.25274282	      0.09358100	     -0.06775422	      0.46936869	      0.12446273	     -0.07198885	      0.41523117	      0.22753284	     -0.07198885	      0.28885977	      0.22753284	     -0.05928494	      0.23469698	      0.19083037	     -0.05505030	      0.14441725	      0.14495696	     -0.05081566	      1.80531667	      1.05860696	     -0.37682862	      0.00000000	      0.00000000	     27.19827387	      1.65380713	     -2.35977900	      9.42814435	    -14.98277830	     69.39315681	     59.13005392	     25.36218941	      1.42318614	      6.12919155	     18.04311857	    -13.89289645	     73.76153841	     61.79772970	     88.20477234	      6.12240980	      7.77103101
      0.03333333	      0.32475822	     -4.17669575	     93.12403739	      0.23594482	      1.01657000	      0.06230834	     -8.03853014	     -0.57063674	     -8.72625648	      6.76141637	      0.11800898	     22.82335733	     10.59739617	      0.00000000	     -6.89806664	      1.86735297	      6.61081557	      5.62768264	      0.09822159	     22.18782725	    -11.41172862	      0.00000000	      0.24443866	      0.09815909	      0.10677027	      0.45394703	      0.13055160	      0.11344342	      0.40158827	      0.23866402	      0.11344342	      0.27936894	      0.23866402	      0.09342399	      0.22698574	      0.20016603	      0.08675085	      0.13967225	      0.15204844	      0.08007771	      1.74600087	      1.11039531	      0.59382423	      0.00000000	      0.00000000	     27.15258337	      0.82807662	     -3.17641973	      8.96652493	    -14.89166810	     67.83413186	     57.85835691	     42.19894974	      4.87451869	      4.14100406	     18.57776763	    -13.92113718	     75.36216604	     61.96745946	     88.41560982	      4.88612579	      7.29280695
      0.05000000	      0.25338310	     -4.11585409	     92.49269697	      0.23663755	      1.01670855	      0.06156825	     -8.06819086	     -0.75115518	     -8.57951361	      6.81966876	      0.11902567	     23.03507887	     11.28160033	      0.00000000	     -7.03683215	      2.04444736	      6.22761657	      5.74725284	      0.10030848	     21.76948911	    -11.97203427	      0.00000000	      0.24663489	      0.09946575	      0.22255982	      0.45802565	      0.13228945	      0.23646981	      0.40519646	      0.24184103	      0.23646981	      0.28187901	      0.24184103	      0.19473985	      0.22902516	      0.20283056	      0.18082986	      0.14092717	      0.15407245	      0.16691987	      1.76168834	      1.12517647	      1.23781098	      0.00000000	      0.00000000	     27.13220391	      0.38017959	     -3.52257791	      8.60645502	    -14.95167660	     67.20605213	     57.62275217	     47.19081385	      5.62181482	      2.38316770	     18.66312472	    -13.88361360	     75.69261462	     62.06119373	     88.51730359	      5.49318444	      7.71100425
      0.06666667	      0.22429143	     -4.11864427	     91.92097144	      0.23742457	      1.01677067	      0.06083836	     -8.03529097	     -0.84225141	     -7.92039372	      6.80609127	      0.11878870	     23.32579078	     11.52068811	      0.00000000	     -7.12854189	      2.12953508	      5.27304339	      5.76185213	      0.10056329	     21.71824541	    -11.50121284	      0.00000000	      0.25738332	      0.10286707	      0.34034911	      0.47798657	      0.13681320	      0.36162093	      0.42285506	      0.25011099	      0.36162093	      0.29416340	      0.25011099	      0.29780547	      0.23900616	      0.20976652	      0.27653365	      0.14706883	      0.15934109	      0.25526183	      1.83846335	      1.16365283	      1.89291963	      0.00000000	      0.00000000	     27.13120405	      0.25873031	     -3.46519794	      8.10931233	    -15.06996209	     66.69255570	     57.73266245	     46.10856047	      5.64956783	      1.17176888	     18.64912390	    -13.76792291	     75.79086998	     62.00564196	     88.50955228	      6.12617823	      8.02818798
      0.08333333	      0.20498706	     -4.10307709	     91.59879986	      0.23797834	      1.01684245	      0.06027690	     -8.04815359	     -0.88324516	     -7.52032721	      6.74712025	      0.11775946	     23.64835885	     11.88536071	      0.00000000	     -7.22575009	      2.19477933	      5.10452590	      5.72044981	      0.09984068	     21.59427652	    -11.82914978	      0.00000000	      0.26188700	      0.10408499	      0.38116735	      0.48635035	      0.13843304	      0.40499031	      0.43025415	      0.25307224	      0.40499031	      0.29931065	      0.25307224	      0.33352143	      0.24318827	      0.21225011	      0.30969847	      0.14964223	      0.16122765	      0.28587551	      1.87063264	      1.17743022	      2.11993845	      0.00000000	      0.00000000	     27.15083663	      0.33473963	     -3.23829772	      8.22039159	    -15.37490344	     68.45125796	     58.78171396	     33.13803304	      3.23185046	      0.17620737	     18.30754682	    -13.65519854	     74.90826438	     61.89137271	     88.48530057	      8.00523398	      8.88996312
      0.10000000	      0.23695473	     -4.14930848	     91.34139776	      0.23843387	      1.01677080	      0.05985638	     -7.96870798	     -0.88579405	     -7.34248185	      6.74190486	      0.11766844	     24.01176016	     12.44827309	      0.00000000	     -7.28199806	      2.19452449	      4.90977409	      5.58920220	      0.09754998	     21.55416368	    -11.98444215	      0.00000000	      0.26924880	      0.11317902	      0.39707248	      0.50002196	      0.15052809	      0.42188951	      0.44234886	      0.27518346	      0.42188951	      0.30772446	      0.27518346	      0.34743842	      0.25002444	      0.23079465	      0.32262139	      0.15384877	      0.17531430	      0.29780436	      1.92321729	      1.28030368	      2.20839801	      0.00000000	      0.00000000	     27.21594145	      0.51019527	     -2.71165420	      8.29506780	    -15.52727330	     69.16031202	     59.45291130	     26.56153493	      1.95252232	     -0.52520461	     17.65041784	    -13.50970089	     73.40053630	     61.75547578	     88.43625513	      9.85116041	      9.85300165
